<mxfile host="app.diagrams.net" modified="2023-09-30T02:31:09.720Z" agent="Mozilla/5.0 (Macintosh; Intel Mac OS X 10_15_7) AppleWebKit/537.36 (KHTML, like Gecko) Chrome/117.0.0.0 Safari/537.36" etag="Z4gw0XAs0Cd_lPE0jf04" version="21.8.2" type="github">
  <diagram name="第 1 页" id="an8AQIkWQJjNNNpSmFoj">
    <mxGraphModel dx="1012" dy="673" grid="1" gridSize="10" guides="1" tooltips="1" connect="1" arrows="1" fold="1" page="1" pageScale="1" pageWidth="827" pageHeight="1169" math="0" shadow="0">
      <root>
        <mxCell id="0" />
        <mxCell id="1" parent="0" />
        <mxCell id="FBWRTHeHvZYtELqj_yFr-1" value="compareAndIncrementWorkerCount" style="rounded=0;whiteSpace=wrap;html=1;" vertex="1" parent="1">
          <mxGeometry x="160" y="360" width="240" height="40" as="geometry" />
        </mxCell>
        <mxCell id="FBWRTHeHvZYtELqj_yFr-2" value="compareAndDecrementWorkerCount" style="rounded=0;whiteSpace=wrap;html=1;" vertex="1" parent="1">
          <mxGeometry x="440" y="360" width="240" height="40" as="geometry" />
        </mxCell>
        <mxCell id="FBWRTHeHvZYtELqj_yFr-3" value="decrementWorkerCount" style="rounded=0;whiteSpace=wrap;html=1;" vertex="1" parent="1">
          <mxGeometry x="720" y="360" width="240" height="40" as="geometry" />
        </mxCell>
        <mxCell id="FBWRTHeHvZYtELqj_yFr-4" value="workers.add()" style="rounded=0;whiteSpace=wrap;html=1;" vertex="1" parent="1">
          <mxGeometry x="40" y="280" width="160" height="40" as="geometry" />
        </mxCell>
        <mxCell id="FBWRTHeHvZYtELqj_yFr-5" value="workers.remove()" style="rounded=0;whiteSpace=wrap;html=1;" vertex="1" parent="1">
          <mxGeometry x="400" y="280" width="160" height="40" as="geometry" />
        </mxCell>
        <mxCell id="FBWRTHeHvZYtELqj_yFr-7" value="" style="edgeStyle=orthogonalEdgeStyle;rounded=0;orthogonalLoop=1;jettySize=auto;html=1;" edge="1" parent="1" source="FBWRTHeHvZYtELqj_yFr-6" target="FBWRTHeHvZYtELqj_yFr-4">
          <mxGeometry relative="1" as="geometry" />
        </mxCell>
        <mxCell id="FBWRTHeHvZYtELqj_yFr-8" value="" style="edgeStyle=orthogonalEdgeStyle;rounded=0;orthogonalLoop=1;jettySize=auto;html=1;" edge="1" parent="1" source="FBWRTHeHvZYtELqj_yFr-6" target="FBWRTHeHvZYtELqj_yFr-1">
          <mxGeometry relative="1" as="geometry">
            <Array as="points">
              <mxPoint x="120" y="240" />
              <mxPoint x="280" y="240" />
            </Array>
          </mxGeometry>
        </mxCell>
        <mxCell id="FBWRTHeHvZYtELqj_yFr-6" value="addWorker()" style="rounded=0;whiteSpace=wrap;html=1;" vertex="1" parent="1">
          <mxGeometry x="40" y="160" width="160" height="40" as="geometry" />
        </mxCell>
        <mxCell id="FBWRTHeHvZYtELqj_yFr-11" value="" style="edgeStyle=orthogonalEdgeStyle;rounded=0;orthogonalLoop=1;jettySize=auto;html=1;entryX=0.5;entryY=0;entryDx=0;entryDy=0;" edge="1" parent="1" source="FBWRTHeHvZYtELqj_yFr-9" target="FBWRTHeHvZYtELqj_yFr-5">
          <mxGeometry relative="1" as="geometry">
            <mxPoint x="360" y="280" as="targetPoint" />
          </mxGeometry>
        </mxCell>
        <mxCell id="FBWRTHeHvZYtELqj_yFr-9" value="addWorkerFailed()" style="rounded=0;whiteSpace=wrap;html=1;" vertex="1" parent="1">
          <mxGeometry x="280" y="160" width="160" height="40" as="geometry" />
        </mxCell>
        <mxCell id="FBWRTHeHvZYtELqj_yFr-12" value="" style="edgeStyle=orthogonalEdgeStyle;rounded=0;orthogonalLoop=1;jettySize=auto;html=1;exitX=0.5;exitY=1;exitDx=0;exitDy=0;" edge="1" parent="1" source="FBWRTHeHvZYtELqj_yFr-9" target="FBWRTHeHvZYtELqj_yFr-3">
          <mxGeometry relative="1" as="geometry">
            <mxPoint x="370" y="210" as="sourcePoint" />
            <mxPoint x="490" y="290" as="targetPoint" />
            <Array as="points">
              <mxPoint x="360" y="240" />
              <mxPoint x="840" y="240" />
            </Array>
          </mxGeometry>
        </mxCell>
      </root>
    </mxGraphModel>
  </diagram>
</mxfile>
